<svg id="Layer_1" data-name="Layer 1" xmlns="http://www.w3.org/2000/svg" viewBox="0 0 65.04 64.83"><title>food-waste</title><path d="M21.6,53.4,21.5,55c-1-.1-2.1-.1-3.1-.2l.1-1c.1-.5-.4-1-.9-1.1a1.09,1.09,0,0,0-1.1.9l-.1.9c-.5,0-.9-.1-1.4-.1a101.78,101.78,0,0,1-8.5-8.9,1.13,1.13,0,0,0-1.1-.3.89.89,0,0,0-.6,1c.1,2.1.3,4.3.5,6.4C3.9,54.2,2.4,55.7.9,57.2a.94.94,0,0,0-.2,1.1.76.76,0,0,0,.8.7h.1a116.7,116.7,0,0,0,13.1-2.6c.5.1,1,.1,1.5.2l-.1,1c-.1.5.4,1,.9,1.1h.1a1.06,1.06,0,0,0,1-.9l.1-1c1.1.1,2.1.2,3.2.2l-.1,1.6a1.09,1.09,0,0,0,.9,1.1h.1a1,1,0,0,0,1-.9l.1-1.6c1.1.1,2.1.1,3.2.1v2.5a.94.94,0,0,0,1,1h0a1,1,0,0,0,1-1V57.3h3.2l.1,3.6a1.08,1.08,0,0,0,1,1h0a1,1,0,0,0,1-1l-.1-3.6c1.1,0,2.1-.1,3.2-.1l.3,5a1,1,0,0,0,1,.9h.1a.9.9,0,0,0,.9-1.1L39,57l3.5-.3a14.93,14.93,0,0,0,4.4,8.5.91.91,0,0,0,.7.3h.1c10.5-1.4,16.8-12.4,16.8-13.4a.87.87,0,0,0-.6-.8c-5.5-3.4-12-6.8-18.6-6.2a1,1,0,0,0-.8.5,17.86,17.86,0,0,0-2.3,9.1l-3.4.3-.3-5a1,1,0,1,0-2,.2l.3,5c-1,.1-2.1.1-3.1.1l-.1-3.5a1,1,0,0,0-2,0l.1,3.5H28.6V52.9a.94.94,0,0,0-1-1,1,1,0,0,0-1,1v2.4c-1,0-2.1-.1-3.1-.1l.1-1.6a1.09,1.09,0,0,0-.9-1.1A.94.94,0,0,0,21.6,53.4ZM4.3,56.6c.9-1,1.8-1.9,2.7-2.9a1.14,1.14,0,0,0,.3-.8c-.2-1.3-.3-2.6-.4-3.9a78,78,0,0,0,5.7,5.8C9.9,55.5,7.1,56.1,4.3,56.6ZM46,47a16.35,16.35,0,0,1,4.9.5,13.66,13.66,0,0,0-1.2,7.4,1,1,0,0,0,2-.3A11.73,11.73,0,0,1,52.8,48a38.58,38.58,0,0,1,9.3,4.5c-1.5,2.6-6.6,9.6-14.3,10.9C43.9,59.2,43.1,52.7,46,47Z" transform="translate(-0.4 -0.67)"/><path d="M53.5,56.5a1,1,0,0,0,1.4,0l.7-.7.7.7a1,1,0,0,0,1.4-1.4l-.7-.7.7-.7a1,1,0,0,0-1.4-1.4l-.8.7-.7-.7a1,1,0,1,0-1.4,1.4l.7.7-.7.7A1.07,1.07,0,0,0,53.5,56.5Z" transform="translate(-0.4 -0.67)"/><path d="M1.1,29.8c4.9,2.1,5,7.8.1,10a1.15,1.15,0,0,0-.6.9,1.05,1.05,0,0,0,.5.9c2.9,1.6,7.5.1,9.9-2.1,2.8,2.4,8.3,4.4,11.9.4a1.14,1.14,0,0,0,.3-.8.75.75,0,0,0-.5-.7c-4.2-2.6-2.2-6.2-.4-11.4a1.13,1.13,0,0,0-.3-1.1c-3.1-2.5-6.8-5.9-.9-9.9a1,1,0,0,0,.4-1,1.09,1.09,0,0,0-.8-.8,7.49,7.49,0,0,0-2.1-.2,12.32,12.32,0,0,0-5.7,1.4,9.28,9.28,0,0,1,8.4-5.7,1,1,0,1,0,0-2c-7.2.2-9.9,5.7-10.8,8.5a11.31,11.31,0,0,0-7-2.3,1.2,1.2,0,0,0-1,.7,1.11,1.11,0,0,0,.4,1.1c5.2,3.2,4.2,10-1.8,12.1a1,1,0,0,0-.7.9A1.36,1.36,0,0,0,1.1,29.8ZM6.6,16.5a10.4,10.4,0,0,1,3.8,2.4,1.07,1.07,0,0,0,1.4-.1A9.7,9.7,0,0,1,18.1,16c-3.9,4.5-2.1,7.5,2.1,11-1.7,5.2-3.5,9,.5,12.4-2.3,1.9-6.8.2-8.8-1.9a1,1,0,0,0-1.4,0,10.63,10.63,0,0,1-6.2,2.7,7,7,0,0,0-.6-11.3C8.5,26.2,9.8,20.6,6.6,16.5Z" transform="translate(-0.4 -0.67)"/><path d="M10.4,31.1a1.08,1.08,0,0,0,.2-1.4,1.2,1.2,0,0,1,0-1.4,1.08,1.08,0,0,0-.2-1.4,1.08,1.08,0,0,0-1.4.2,3.15,3.15,0,0,0,0,3.7A.86.86,0,0,0,10.4,31.1Z" transform="translate(-0.4 -0.67)"/><path d="M13.3,31.1a1.08,1.08,0,0,0,1.4-.2,3.15,3.15,0,0,0,0-3.7,1,1,0,1,0-1.6,1.2,1.2,1.2,0,0,1,0,1.4A1,1,0,0,0,13.3,31.1Z" transform="translate(-0.4 -0.67)"/><path d="M36.8,38.2h0c5.8,0,10.3-3.1,12.2-8.1,5.2,5.8,9,11.3,12.8,8.5s-2.7-11.7-5.6-15.4c2.3-.1,5.5-1.2,9-5.1a.91.91,0,0,0,.1-1.1.88.88,0,0,0-1-.5c-4.3.5-7.9-3.2-11-6.5-2.7-2.7-5.4-5.5-8.2-5.1L40.7,1.3a3,3,0,0,0-4.2.5A3.06,3.06,0,0,0,37.3,6L41,8.5c-.8,2-1,4.8-1.1,7.9-4.6,2.1-8.4,1.3-10-3.4a.86.86,0,0,0-.7-.6,1,1,0,0,0-.9.2c-1.1,1-2.6,5.6-.8,9,2.1,4.1,7.4,4.3,12,3.6-.9,7.7-7.4,8-14.5,5.1a1.1,1.1,0,0,0-1.2.3.91.91,0,0,0,0,1.2A16.49,16.49,0,0,0,36.8,38.2Zm23.8-1.3c-2.2,1.7-5.6-3.3-10.9-9.1a26.39,26.39,0,0,0,.4-7.1,10,10,0,0,0,3.2,2C55.2,25,62.9,35.1,60.6,36.9ZM51.9,11.2c2.9,3,6.2,6.3,10.2,7-5.1,4.5-10,3.5-12.6-1.7a25.38,25.38,0,0,0-4.2-9.7C45.9,7,46.3,5.4,51.9,11.2ZM38.4,4.4a1,1,0,0,1-.2-1.5,1,1,0,0,1,1.3-.2l3.6,3a5.24,5.24,0,0,0-1.1,1ZM29.2,20.8a7,7,0,0,1-.3-5.1c2.4,4,6.6,4.6,10.9,2.9,0,1.4-.1,3-.2,4.6C34.2,24.1,30.6,23.3,29.2,20.8Zm12.1,5c1-7.9-.1-15.2,2.3-18,7.1,10.4,6.7,28.3-6.9,28.3a14.74,14.74,0,0,1-8.4-2.7C36.1,35.3,40.6,31.9,41.3,25.8Z" transform="translate(-0.4 -0.67)"/></svg>