<svg xmlns="http://www.w3.org/2000/svg" viewBox="0 0 95 36.83"><title>people</title><g id="Layer_1" data-name="Layer 1"><circle cx="11.2" cy="13.23" r="1.5"/><circle cx="17.6" cy="13.23" r="1.5"/><path d="M16.9,51.9a4.27,4.27,0,0,0,3.6-1.8.87.87,0,1,0-1.5-.9,2.79,2.79,0,0,1-2.2,1.1,2.53,2.53,0,0,1-2.2-1.1.87.87,0,1,0-1.5.9A4.94,4.94,0,0,0,16.9,51.9Z" transform="translate(-2.5 -31.67)"/><path d="M25.7,57.8H22.3v-.1l-.6-2.2c2.6-1.9,4.2-4.2,4.6-6.6,1.5-.3,2.2-1.4,2.2-3.2a3.52,3.52,0,0,0-1-2.9,3.07,3.07,0,0,0-1.4-.6c0-1,0-2.2-.1-3.6-.1-.7-.2-1.4-.3-2a9.23,9.23,0,0,0,.1-3.3.54.54,0,0,0-.8-.4c-.2.1-.4.1-.6.2a2.72,2.72,0,0,0,0-.9c0-.4-.5-.6-.8-.5a19.17,19.17,0,0,1-6.8,1.1c-4.9,0-8.8.2-9.2,5.7-.1,1.4-.1,2.6-.1,3.6a2.29,2.29,0,0,0-1.4.6,3.66,3.66,0,0,0-1,2.9c0,1.8.7,2.9,2.2,3.2.4,2.5,2,4.7,4.6,6.6l-.6,2.2v.1H8.1a5.59,5.59,0,0,0-5.6,5.6v3.5A1.54,1.54,0,0,0,4,68.3H29.9a1.54,1.54,0,0,0,1.5-1.5V63.3A5.73,5.73,0,0,0,25.7,57.8ZM9.1,48.2a1.17,1.17,0,0,0-1-1c-.7,0-1.1-.1-1.1-1.5A3,3,0,0,1,7.4,44a1.21,1.21,0,0,1,.5-.1,4.44,4.44,0,0,0,.2,1.3c.1.6,1.7.6,1.8,0,.1-.4-.3-3.3,1.1-5.9a16.26,16.26,0,0,0,6,1,16.26,16.26,0,0,0,6-1c1.4,2.6,1,5.5,1.1,5.9s1.6.5,1.8,0c.1-.3.1-.8.2-1.3a1.21,1.21,0,0,1,.5.1c.2.1.4.5.4,1.7,0,1.4-.5,1.5-1.1,1.5a1.17,1.17,0,0,0-1,1c-.2,2.2-1.6,4.2-4.1,6a6.46,6.46,0,0,1-7.5,0Q9.4,51.5,9.1,48.2Zm11,11.6h0a5.4,5.4,0,0,1-6.4,0,1.66,1.66,0,0,1-.6-1.6l.5-1.8a7.25,7.25,0,0,0,3.3.7,8.84,8.84,0,0,0,3.3-.7l.5,1.8A1.66,1.66,0,0,1,20.1,59.8Z" transform="translate(-2.5 -31.67)"/><circle cx="44.3" cy="13.23" r="1.5"/><circle cx="50.7" cy="13.23" r="1.5"/><path d="M50,51.9a4.27,4.27,0,0,0,3.6-1.8.87.87,0,0,0-1.5-.9,2.79,2.79,0,0,1-2.2,1.1,2.53,2.53,0,0,1-2.2-1.1.87.87,0,0,0-1.5.9A4.94,4.94,0,0,0,50,51.9Z" transform="translate(-2.5 -31.67)"/><path d="M58.8,57.8H55.3l-.5-1.7c3.9.3,6.8.1,6-8a3.29,3.29,0,0,0,.8-2.4,3.52,3.52,0,0,0-1-2.9,1.61,1.61,0,0,0-.7-.4c-2-9.3-8.7-9.1-9.9-9.1s-8-.1-10,9.1a2.15,2.15,0,0,0-.7.4,3.66,3.66,0,0,0-1,2.9,3.29,3.29,0,0,0,.8,2.4c-.8,8.1,2.1,8.3,6,8l-.5,1.7H41.1a5.59,5.59,0,0,0-5.6,5.6v3.5A1.54,1.54,0,0,0,37,68.4H62.9a1.54,1.54,0,0,0,1.5-1.5V63.4A5.59,5.59,0,0,0,58.8,57.8ZM42.2,48.3a1.17,1.17,0,0,0-1-1c-.6-.1-1.1-.1-1.1-1.5a3,3,0,0,1,.4-1.7.35.35,0,0,1,.2-.1,1,1,0,0,0,.7.7.82.82,0,0,0,1-.7,11.62,11.62,0,0,1,.6-2.2,12.7,12.7,0,0,0,5.9-1.4,17,17,0,0,0,3-1.8,11,11,0,0,0,1.1,1,9.41,9.41,0,0,0,4.1,2.1,8.65,8.65,0,0,1,.6,2.3.85.85,0,0,0,.8.7h.1a.85.85,0,0,0,.7-.7c.1,0,.1.1.2.1s.4.5.4,1.7c0,1.4-.5,1.5-1.1,1.5a1.17,1.17,0,0,0-1,1c-.2,2.2-1.6,4.2-4.1,6a6.46,6.46,0,0,1-7.5,0C43.8,52.5,42.4,50.4,42.2,48.3Zm11,11.9-2.3,1.7a1.5,1.5,0,0,1-1.8,0l-2.3-1.7a1.66,1.66,0,0,1-.6-1.6l.6-2.2a8.76,8.76,0,0,0,3.2.7,7.11,7.11,0,0,0,3.2-.7l.6,2.2A1.66,1.66,0,0,1,53.2,60.2Z" transform="translate(-2.5 -31.67)"/><circle cx="77.4" cy="13.83" r="1.5"/><circle cx="83.8" cy="13.83" r="1.5"/><path d="M86.7,50.7a.87.87,0,1,0-1.5-.9A2.79,2.79,0,0,1,83,50.9a2.53,2.53,0,0,1-2.2-1.1.87.87,0,1,0-1.5.9,4.27,4.27,0,0,0,3.6,1.8A4.65,4.65,0,0,0,86.7,50.7Z" transform="translate(-2.5 -31.67)"/><path d="M91.9,57.8H88.4L87.9,56a9.9,9.9,0,0,0,4.6-6.9c1.5-.3,2.2-1.4,2.2-3.2a3.52,3.52,0,0,0-1-2.9,2.26,2.26,0,0,0-1.1-.5,4.87,4.87,0,0,0-.1-1.2c-.5-7.4-5.6-8.1-9.5-8.1s-8.9.7-9.5,8.1c0,.4-.1.8-.1,1.2a2.26,2.26,0,0,0-1.1.5,3.66,3.66,0,0,0-1,2.9c0,1.8.7,2.9,2.2,3.2A10.35,10.35,0,0,0,78.1,56l-.5,1.9H74.1a5.59,5.59,0,0,0-5.6,5.6V67A1.54,1.54,0,0,0,70,68.5H96A1.54,1.54,0,0,0,97.5,67V63.5A5.61,5.61,0,0,0,91.9,57.8ZM75.3,48.4a1.17,1.17,0,0,0-1-1c-.6-.1-1.1-.1-1.1-1.5a3,3,0,0,1,.4-1.7,1.21,1.21,0,0,1,.5-.1c.1.5.1,1,.2,1.3.2.6.8.5.9,0a17.63,17.63,0,0,1,1.6-4.9,4.81,4.81,0,0,0,2.7,1.2c.1,0,.2-.1.1-.2a13.08,13.08,0,0,1-.5-1.5,6.08,6.08,0,0,0,4.2,1.8c.1,0,.2-.1.1-.2a6.66,6.66,0,0,1-.6-1.2,6.18,6.18,0,0,0,4.4.9c.1,0,.1-.2.1-.3a10.63,10.63,0,0,1-.9-1.1,7.62,7.62,0,0,0,2.9.9,14.75,14.75,0,0,1,1.5,4.7.45.45,0,0,0,.9,0c.1-.3.1-.8.2-1.3a1.21,1.21,0,0,1,.5.1c.2.1.4.5.4,1.7,0,1.4-.5,1.5-1.1,1.5a1.17,1.17,0,0,0-1,1,7.72,7.72,0,0,1-15.4-.1Zm11,11.8L84,61.9a1.5,1.5,0,0,1-1.8,0l-2.3-1.7a1.66,1.66,0,0,1-.6-1.6l.5-1.9a10.9,10.9,0,0,0,3.3.5,11.42,11.42,0,0,0,3.3-.5l.5,1.9A1.66,1.66,0,0,1,86.3,60.2Z" transform="translate(-2.5 -31.67)"/></g></svg>