<svg id="Layer_1" data-name="Layer 1" xmlns="http://www.w3.org/2000/svg" viewBox="0 0 276.04 200.95"><title>sharing-food</title><path d="M111.79,62.58c0,.08,0,.15,0,.23h-.16l-6.44,7.28a31.6,31.6,0,0,0,19.17,22v4.33h23V92.14A31.61,31.61,0,0,0,165.1,74.38l-6.2-5.31a9.92,9.92,0,0,1-3.41-6.26H114.3a11.84,11.84,0,0,1,1-3.17c.68-1.25,1.41-1.91,2.49-1.91a3.61,3.61,0,0,1,1.07.18,13.14,13.14,0,0,0,4.11.72c4,0,6.27-2.23,8.74-3.54a2.77,2.77,0,0,1,1.37-.4c1.55-.16,3.76,2.28,7.44,4.25a7.41,7.41,0,0,0,3.37.87c3.29-.11,5.07-2.12,7.87-2.39l.26,0c.94-.06,2.27.78,3.54,2.15a9.64,9.64,0,0,1,.91-2.61,6.89,6.89,0,0,0-4.45-2,3.56,3.56,0,0,0-.57,0c-3.72.55-5.68,2.48-7.56,2.37a4.87,4.87,0,0,1-2.24-.6c-3.22-1.54-5.15-4.36-8.57-4.52a5.41,5.41,0,0,0-2.57.7c-2.87,1.6-4.64,3.25-7.54,3.24a11,11,0,0,1-3.34-.59,5.72,5.72,0,0,0-1.42-.27c-.09.1-.17.22-.26.32Z" transform="translate(0 0.01)"/><path d="M183.6,52c1.73,1.08,5.27.84,8.86-.76,4.46-2,7.3-5.32,6.36-7.44-.77-1.73-11.63,2.74-15.11,5.6l-11.19,5,2,1.68Zm12.31-6.64c.31.69-1.71,2.26-4.5,3.5s-5.31,1.71-5.62,1S195.6,44.69,195.91,45.38Z" transform="translate(0 0.01)"/><path d="M103.46,41.86l-5.17-1.11c-4-2.08-15.54-4.21-15.93-2.36-.49,2.27,3,4.94,7.75,6,3.85.83,7.36.33,8.83-1.09l2.71.59L103,42.35Zm-12.81,0c-3-.65-5.29-1.76-5.13-2.5s11,1.6,10.84,2.33S93.65,42.46,90.65,41.82Z" transform="translate(0 0.01)"/><path d="M121,48l.49-2.28-1.73-.37a9.57,9.57,0,0,1,.61,2.52Z" transform="translate(0 0.01)"/><path d="M5,144.27H8.33l19,25.58L7,197.27H20.25L34,178.78l13.75,18.49H61L40.65,169.85l19-25.58H63a5,5,0,0,0,5-5v-2a4.9,4.9,0,0,0-.07-.67H78.52L65.9,185.3a12.5,12.5,0,1,0,24.2,6.27l16.67-64.34a12.49,12.49,0,0,0-6.84-14.46h7l25.31,42.79-25.06,42.36h11.62L138,165.38l19.25,32.54h11.62l-25.06-42.36,25.31-42.79h7a12.46,12.46,0,0,0-6.84,14.46l16.66,64.34a12.5,12.5,0,0,0,24.21-6.27l-12.62-48.7H208.1a4.91,4.91,0,0,0-.06.67v2a5,5,0,0,0,5,5h3.32l19,25.58L215,197.27h13.3L242,178.78l13.75,18.49h13.29l-20.4-27.42,19-25.58H271a5,5,0,0,0,5-5v-2a5,5,0,0,0-5-5H253.41c4.5-2.94,7.89-8,8.23-17-.85-22.35-4.31-35.1-14.13-54-7.22-13.7-20.16-16.38-28.27-13-5.05,2.13-7.69,7.73-7.9,13.93l9.12-6.92a10,10,0,0,1,12.09,15.94L217.11,82.93c3.18,8.72,6.58,18.7,8.36,28.67H213.38a5,5,0,0,0,1.82-3.83v-3a5,5,0,0,0-5-5H65.83a5,5,0,0,0-5,5v3a5,5,0,0,0,1.83,3.83H50.57c2.11-11.83,6.51-23.7,10.11-33.43L46,72.61a10,10,0,0,1-5.81-12.9,10,10,0,0,1,12.9-5.81l11.08,4.2c-1-4.46-3.46-8.19-7.37-9.83-8.1-3.41-21-.73-28.26,13-9.83,18.89-13.28,31.64-14.14,54,.35,9,3.74,14.1,8.23,17H5a5,5,0,0,0-5,5v2A5,5,0,0,0,5,144.27Zm29,28a3.17,3.17,0,1,1,3.17-3.17A3.17,3.17,0,0,1,34,172.27Zm0-11.36L21.62,144.27H46.38ZM138,159a3.17,3.17,0,1,1,3.17-3.17A3.17,3.17,0,0,1,138,159Zm0-13.27-20.47-33h40.94Zm104,26.53a3.17,3.17,0,1,1,3.16-3.17A3.17,3.17,0,0,1,242,172.27Zm0-11.36-12.39-16.64h24.76Z" transform="translate(0 0.01)"/><circle cx="61.85" cy="22.59" r="22.49" transform="translate(17.77 71.51) rotate(-68.04)"/><path d="M42.06,60.42A8,8,0,0,0,46.7,70.74h0L82.89,84.45a8,8,0,0,0,8.83-2.18l24.75-28a8,8,0,0,0-12-10.6L83.39,67.53l-31-11.76A8,8,0,0,0,42.06,60.42Z" transform="translate(0 0.01)"/><circle cx="213.68" cy="22.49" r="22.49" transform="translate(7.06 81.45) rotate(-21.93)"/><path d="M160.2,67.55,190,93.05A8,8,0,0,0,195.22,95a8.05,8.05,0,0,0,4.84-1.62l31.27-23.72a8,8,0,0,0-9.66-12.75h0L195.52,76.7,170.59,55.39A8,8,0,1,0,160.2,67.55Z" transform="translate(0 0.01)"/></svg>